<svg xmlns="http://www.w3.org/2000/svg" width="20" height="20" viewBox="0 0 20 20">
  <g id="bag_icon" data-name="bag icon" transform="translate(-1476 -17)">
    <g id="shopping-bag" transform="translate(1429.2 17)">
      <path id="Path_1" data-name="Path 1" d="M64.8,17.288l-1.145-12.9a.551.551,0,0,0-.548-.5H60.749a3.949,3.949,0,0,0-7.9,0H50.5a.548.548,0,0,0-.548.5L48.8,17.288c0,.016,0,.033,0,.049A2.849,2.849,0,0,0,51.8,20h10a2.849,2.849,0,0,0,3-2.663A.2.2,0,0,0,64.8,17.288ZM56.8,1.1A2.849,2.849,0,0,1,59.645,3.89h-5.69A2.849,2.849,0,0,1,56.8,1.1Zm5,17.791h-10a1.761,1.761,0,0,1-1.9-1.534L51,5h1.848V6.675a.552.552,0,1,0,1.1,0V5h5.694V6.675a.552.552,0,1,0,1.1,0V5H62.6l1.1,12.364A1.764,1.764,0,0,1,61.8,18.9Z" transform="translate(0 0)" fill="#fff"/>
    </g>
    <rect id="Rectangle_6" data-name="Rectangle 6" width="20" height="20" transform="translate(1476 17)" fill="none"/>
  </g>
</svg>
