<svg xmlns="http://www.w3.org/2000/svg" width="20" height="20" viewBox="0 0 20 20">
  <g id="Group_1" data-name="Group 1" transform="translate(-1470 -17)">
    <path id="user" d="M20,10A10,10,0,1,0,3.245,17.364l-.009.008.324.273c.021.018.044.032.065.05.172.143.351.279.533.41.059.043.118.085.178.127q.291.2.6.381l.134.077c.223.127.45.247.684.356l.052.023a9.909,9.909,0,0,0,2.418.765l.067.012c.263.045.529.082.8.106l.1.008c.268.022.54.036.814.036s.541-.014.808-.036l.1-.008q.4-.037.792-.1l.068-.012a9.908,9.908,0,0,0,2.384-.747l.083-.038q.337-.158.658-.34l.16-.092c.2-.115.388-.236.575-.364.067-.046.133-.094.2-.142.16-.115.316-.233.469-.357.034-.027.07-.051.1-.079l.333-.278-.01-.008A9.973,9.973,0,0,0,20,10ZM.727,10a9.271,9.271,0,1,1,15.42,6.931,2.725,2.725,0,0,0-.325-.2L12.744,15.2a.806.806,0,0,1-.448-.725V13.4c.071-.088.147-.188.224-.3a7.409,7.409,0,0,0,.951-1.863,1.32,1.32,0,0,0,.758-1.2V8.751a1.323,1.323,0,0,0-.323-.861v-1.7a2.933,2.933,0,0,0-.685-2.132A4.093,4.093,0,0,0,10,2.909,4.094,4.094,0,0,0,6.775,4.061,2.933,2.933,0,0,0,6.09,6.193v1.7a1.325,1.325,0,0,0-.323.861V10.04a1.323,1.323,0,0,0,.487,1.026,6.832,6.832,0,0,0,1.125,2.323v1.052a.811.811,0,0,1-.422.712L4.082,16.721a2.628,2.628,0,0,0-.273.173A9.249,9.249,0,0,1,.727,10Z" transform="translate(1470 17)" fill="#fff"/>
    <rect id="Rectangle_5" data-name="Rectangle 5" width="20" height="20" transform="translate(1470 17)" fill="none"/>
  </g>
</svg>
