<svg xmlns="http://www.w3.org/2000/svg" width="24" height="24" viewBox="0 0 24 24">
  <g id="select" transform="translate(-642 -478)">
    <g id="down-arrow" transform="translate(640.6 452.6)">
      <path id="Path_2" data-name="Path 2" d="M20.257,33.555a.473.473,0,0,0-.7,0l-6.151,6.583L7.244,33.555a.473.473,0,0,0-.7,0,.555.555,0,0,0,0,.747l6.5,6.944a.468.468,0,0,0,.35.155.487.487,0,0,0,.35-.155l6.5-6.944A.542.542,0,0,0,20.257,33.555Z" transform="translate(0 0)" fill="#494b4e"/>
    </g>
    <rect id="Rectangle_13" data-name="Rectangle 13" width="24" height="24" transform="translate(642 478)" fill="none"/>
  </g>
</svg>
